<svg width="1200" height="630" viewBox="0 0 1200 630" fill="none" xmlns="http://www.w3.org/2000/svg">
  <rect width="1200" height="630" fill="#F3F6FA"/>
  <rect x="48" y="48" width="1104" height="534" rx="28" fill="#FCFDFF" stroke="#D5DFEC" stroke-width="2"/>
  <rect x="96" y="96" width="188" height="40" rx="20" fill="#DCEAFB"/>
  <text x="126" y="121" fill="#1E4F8A" font-family="Georgia, 'Times New Roman', serif" font-size="20" font-weight="700">Tributos</text>
  <text x="96" y="230" fill="#0F172A" font-family="Georgia, 'Times New Roman', serif" font-size="62" font-weight="700">Tributos de importacion</text>
  <text x="96" y="304" fill="#0F172A" font-family="Georgia, 'Times New Roman', serif" font-size="62" font-weight="700">en Peru</text>
  <text x="96" y="372" fill="#475569" font-family="'Trebuchet MS', Verdana, sans-serif" font-size="28">Mapa claro por operacion</text>
  <rect x="96" y="438" width="300" height="16" rx="8" fill="#0F172A" opacity="0.12"/>
  <rect x="96" y="470" width="224" height="16" rx="8" fill="#0F172A" opacity="0.08"/>
  <rect x="774" y="132" width="262" height="308" rx="28" fill="#DCEAFB"/>
  <rect x="822" y="180" width="166" height="210" rx="18" fill="#FCFDFF" stroke="#70A3DD" stroke-width="3"/>
  <path d="M855 226H955" stroke="#70A3DD" stroke-width="8" stroke-linecap="round"/>
  <path d="M855 270H955" stroke="#70A3DD" stroke-width="8" stroke-linecap="round"/>
  <path d="M855 314H915" stroke="#70A3DD" stroke-width="8" stroke-linecap="round"/>
  <circle cx="926" cy="332" r="44" fill="#0F172A"/>
  <path d="M910 332H942" stroke="#FCFDFF" stroke-width="8" stroke-linecap="round"/>
  <path d="M926 316V348" stroke="#FCFDFF" stroke-width="8" stroke-linecap="round"/>
</svg>
