<svg width="1200" height="630" viewBox="0 0 1200 630" fill="none" xmlns="http://www.w3.org/2000/svg">
  <rect width="1200" height="630" fill="#F7F4EC"/>
  <rect x="48" y="48" width="1104" height="534" rx="28" fill="#FFFCF6" stroke="#D9D2C3" stroke-width="2"/>
  <rect x="96" y="96" width="212" height="40" rx="20" fill="#F1E5C9"/>
  <text x="126" y="121" fill="#6E5B2E" font-family="Georgia, 'Times New Roman', serif" font-size="20" font-weight="700">Consultoria</text>
  <text x="96" y="230" fill="#0F172A" font-family="Georgia, 'Times New Roman', serif" font-size="64" font-weight="700">Valoracion aduanera</text>
  <text x="96" y="304" fill="#0F172A" font-family="Georgia, 'Times New Roman', serif" font-size="64" font-weight="700">en Peru</text>
  <text x="96" y="372" fill="#475569" font-family="'Trebuchet MS', Verdana, sans-serif" font-size="28">Guia clara para importadores</text>
  <rect x="96" y="438" width="324" height="16" rx="8" fill="#0F172A" opacity="0.12"/>
  <rect x="96" y="470" width="248" height="16" rx="8" fill="#0F172A" opacity="0.08"/>
  <rect x="806" y="140" width="228" height="280" rx="26" fill="#F1E5C9"/>
  <rect x="844" y="172" width="152" height="204" rx="14" fill="#FFFCF6" stroke="#B89E62" stroke-width="3"/>
  <path d="M874 228H966" stroke="#B89E62" stroke-width="8" stroke-linecap="round"/>
  <path d="M874 272H966" stroke="#B89E62" stroke-width="8" stroke-linecap="round"/>
  <path d="M874 316H934" stroke="#B89E62" stroke-width="8" stroke-linecap="round"/>
  <circle cx="965" cy="316" r="38" fill="#0F172A"/>
  <path d="M966 295V337" stroke="#FFFCF6" stroke-width="8" stroke-linecap="round"/>
  <path d="M945 316H987" stroke="#FFFCF6" stroke-width="8" stroke-linecap="round"/>
</svg>
